<?xml version="1.0" encoding="UTF-8" standalone="no"?>
<!DOCTYPE svg PUBLIC "-//W3C//DTD SVG 1.1//EN"
 "http://www.w3.org/Graphics/SVG/1.1/DTD/svg11.dtd">
<!-- Generated by graphviz version 14.1.5 (20260411.2331)
 -->
<!-- Title: packages_ArcadeSystemAuto Pages: 1 -->
<svg width="734pt" height="188pt"
 viewBox="0.00 0.00 734.00 188.00" xmlns="http://www.w3.org/2000/svg" xmlns:xlink="http://www.w3.org/1999/xlink">
<g id="graph0" class="graph" transform="scale(1 1) rotate(0) translate(4 184)">
<title>packages_ArcadeSystemAuto</title>
<polygon fill="white" stroke="none" points="-4,4 -4,-184 729.88,-184 729.88,4 -4,4"/>
<!-- datastructures -->
<g id="node1" class="node">
<title>datastructures</title>
<polygon fill="#77aadd" stroke="#77aadd" points="166.38,-36 75.38,-36 75.38,0 166.38,0 166.38,-36"/>
<text xml:space="preserve" text-anchor="start" x="83.38" y="-13.5" font-family="Times New Roman,serif" font-size="14.00">datastructures</text>
</g>
<!-- datastructures.array -->
<g id="node2" class="node">
<title>datastructures.array</title>
<polygon fill="#77aadd" stroke="#77aadd" points="331.12,-180 208.62,-180 208.62,-144 331.12,-144 331.12,-180"/>
<text xml:space="preserve" text-anchor="start" x="216.62" y="-157.5" font-family="Times New Roman,serif" font-size="14.00">datastructures.array</text>
</g>
<!-- datastructures.bst -->
<g id="node3" class="node">
<title>datastructures.bst</title>
<polygon fill="#77aadd" stroke="#77aadd" points="484.12,-36 373.62,-36 373.62,0 484.12,0 484.12,-36"/>
<text xml:space="preserve" text-anchor="start" x="381.62" y="-13.5" font-family="Times New Roman,serif" font-size="14.00">datastructures.bst</text>
</g>
<!-- datastructures.circular_buffer -->
<g id="node4" class="node">
<title>datastructures.circular_buffer</title>
<polygon fill="#77aadd" stroke="#77aadd" points="175.75,-108 0,-108 0,-72 175.75,-72 175.75,-108"/>
<text xml:space="preserve" text-anchor="start" x="8" y="-85.5" font-family="Times New Roman,serif" font-size="14.00">datastructures.circular_buffer</text>
</g>
<!-- datastructures.circular_buffer&#45;&gt;datastructures.array -->
<g id="edge1" class="edge">
<title>datastructures.circular_buffer&#45;&gt;datastructures.array</title>
<path fill="none" stroke="black" d="M133.33,-108.48C157.85,-117.92 188.32,-129.63 214.25,-139.61"/>
<polygon fill="black" stroke="black" points="223.55,-143.18 212.6,-143.79 220.02,-141.82 214.21,-139.59 214.21,-139.59 214.21,-139.59 220.02,-141.82 215.83,-135.39 223.55,-143.18"/>
</g>
<!-- datastructures.hash_table -->
<g id="node5" class="node">
<title>datastructures.hash_table</title>
<polygon fill="#77aadd" stroke="#77aadd" points="346.12,-108 193.62,-108 193.62,-72 346.12,-72 346.12,-108"/>
<text xml:space="preserve" text-anchor="start" x="201.62" y="-85.5" font-family="Times New Roman,serif" font-size="14.00">datastructures.hash_table</text>
</g>
<!-- datastructures.hash_table&#45;&gt;datastructures.array -->
<g id="edge2" class="edge">
<title>datastructures.hash_table&#45;&gt;datastructures.array</title>
<path fill="none" stroke="black" d="M269.88,-108.3C269.88,-115.68 269.88,-124.48 269.88,-132.75"/>
<polygon fill="black" stroke="black" points="269.88,-142.68 265.38,-132.68 269.88,-138.9 269.88,-132.68 269.88,-132.68 269.88,-132.68 269.88,-138.9 274.38,-132.68 269.88,-142.68"/>
</g>
<!-- datastructures.linked_list -->
<g id="node6" class="node">
<title>datastructures.linked_list</title>
<polygon fill="#77aadd" stroke="#77aadd" points="653.75,-36 502,-36 502,0 653.75,0 653.75,-36"/>
<text xml:space="preserve" text-anchor="start" x="510" y="-13.5" font-family="Times New Roman,serif" font-size="14.00">datastructures.linked_list</text>
</g>
<!-- datastructures.sparse_matrix -->
<g id="node7" class="node">
<title>datastructures.sparse_matrix</title>
<polygon fill="#77aadd" stroke="#77aadd" points="355.5,-36 184.25,-36 184.25,0 355.5,0 355.5,-36"/>
<text xml:space="preserve" text-anchor="start" x="192.25" y="-13.5" font-family="Times New Roman,serif" font-size="14.00">datastructures.sparse_matrix</text>
</g>
<!-- datastructures.sparse_matrix&#45;&gt;datastructures.hash_table -->
<g id="edge3" class="edge">
<title>datastructures.sparse_matrix&#45;&gt;datastructures.hash_table</title>
<path fill="none" stroke="black" d="M269.88,-36.3C269.88,-43.68 269.88,-52.48 269.88,-60.75"/>
<polygon fill="black" stroke="black" points="269.88,-70.68 265.38,-60.68 269.88,-66.9 269.88,-60.68 269.88,-60.68 269.88,-60.68 269.88,-66.9 274.38,-60.68 269.88,-70.68"/>
</g>
<!-- datastructures.stack -->
<g id="node8" class="node">
<title>datastructures.stack</title>
<polygon fill="#77aadd" stroke="#77aadd" points="487.12,-108 364.62,-108 364.62,-72 487.12,-72 487.12,-108"/>
<text xml:space="preserve" text-anchor="start" x="372.62" y="-85.5" font-family="Times New Roman,serif" font-size="14.00">datastructures.stack</text>
</g>
<!-- datastructures.stack&#45;&gt;datastructures.array -->
<g id="edge4" class="edge">
<title>datastructures.stack&#45;&gt;datastructures.array</title>
<path fill="none" stroke="black" d="M386.91,-108.48C366.27,-117.75 340.7,-129.22 318.74,-139.07"/>
<polygon fill="black" stroke="black" points="309.72,-143.12 317,-134.92 313.17,-141.57 318.85,-139.03 318.85,-139.03 318.85,-139.03 313.17,-141.57 320.69,-143.13 309.72,-143.12"/>
</g>
<!-- main -->
<g id="node9" class="node">
<title>main</title>
<polygon fill="#99ddff" stroke="#99ddff" points="725.88,-36 671.88,-36 671.88,0 725.88,0 725.88,-36"/>
<text xml:space="preserve" text-anchor="start" x="685" y="-13.5" font-family="Times New Roman,serif" font-size="14.00">main</text>
</g>
</g>
</svg>
